<?xml version="1.0" encoding="utf-8"?><svg viewBox="0 0 1728 989" xmlns="http://www.w3.org/2000/svg" xmlns:xlink="http://www.w3.org/1999/xlink"><style>:root>svg{display:none}:root>svg:target{display:block}</style><svg viewBox="0 0 14 8" id="arrow-down" xmlns="http://www.w3.org/2000/svg"><path d="M1 1l6 6 6-6"/></svg><svg fill="none" viewBox="0 0 11 21" id="arrow-left" xmlns="http://www.w3.org/2000/svg"><path d="M9.875 19.25l-8.75-8.75 8.75-8.75" stroke="#fff" stroke-width="2" stroke-linecap="round" stroke-linejoin="round"/></svg><svg fill="none" viewBox="0 0 11 21" id="arrow-right" xmlns="http://www.w3.org/2000/svg"><path d="M1.125 19.25l8.75-8.75-8.75-8.75" fill="#F03A76"/><path d="M1.125 19.25l8.75-8.75-8.75-8.75" stroke="#fff" stroke-width="2" stroke-linecap="round" stroke-linejoin="round"/></svg><svg viewBox="0 0 59 53" id="clock-team" xmlns="http://www.w3.org/2000/svg"><path d="M58.844 28.85c-.522-4.936-2.87-9.589-6.609-13.102-3.196-3.002-7.108-4.932-11.224-5.79V7.246c1.681-.393 2.931-1.822 2.931-3.521 0-2.002-1.733-3.63-3.863-3.63h-8.18c-2.131 0-3.864 1.628-3.864 3.63 0 1.699 1.25 3.128 2.93 3.521v2.72c-4.103.862-8.002 2.788-11.188 5.782a22.15 22.15 0 00-1.93 2.057c-.028-.002-.056-.004-.086-.004H9.665c-.628 0-1.137.478-1.137 1.067 0 .59.51 1.068 1.137 1.068H16.3a20.822 20.822 0 00-2.016 4.102H1.92c-.627 0-1.136.478-1.136 1.068 0 .59.509 1.067 1.136 1.067h11.724a20.458 20.458 0 00-.564 4.103H8.055c-.627 0-1.136.478-1.136 1.067 0 .59.509 1.068 1.136 1.068h5.06c.096 1.381.333 2.756.71 4.102h-7.36c-.628 0-1.137.478-1.137 1.068 0 .59.509 1.067 1.136 1.067h8.086c1.115 2.77 2.857 5.367 5.227 7.593 3.743 3.517 8.701 5.722 13.96 6.21.75.07 1.502.104 2.252.104 4.434 0 8.811-1.205 12.525-3.477.526-.322.675-.983.332-1.477-.342-.494-1.046-.634-1.572-.312-8.13 4.974-19.019 3.898-25.89-2.558-8.063-7.574-8.063-19.899 0-27.473 8.062-7.575 21.181-7.575 29.244 0 6.863 6.447 8.014 16.667 2.737 24.302-.342.494-.192 1.155.334 1.476.526.321 1.23.18 1.572-.314 2.819-4.079 4.088-9.005 3.573-13.872zM30.307 3.725c0-.824.714-1.495 1.591-1.495h8.18c.878 0 1.592.67 1.592 1.495 0 .824-.714 1.494-1.591 1.494h-8.181c-.877 0-1.59-.67-1.59-1.494zm2.931 5.874V7.354h5.5v2.241a24.633 24.633 0 00-5.5.004z"/><path d="M51.432 44.419c-.3 0-.592.114-.803.312a1.039 1.039 0 00-.333.755c0 .28.12.556.333.755.211.2.503.312.803.312.299 0 .59-.113.803-.313.212-.198.333-.473.333-.754 0-.28-.121-.556-.333-.755a1.185 1.185 0 00-.803-.313zM36.006 14.436c-9.72 0-17.626 7.428-17.626 16.558 0 9.13 7.907 16.559 17.626 16.559 9.719 0 17.626-7.428 17.626-16.558 0-9.13-7.907-16.559-17.626-16.559zm0 30.982c-8.466 0-15.354-6.47-15.354-14.424 0-7.953 6.888-14.423 15.354-14.423s15.353 6.47 15.353 14.423c0 7.954-6.887 14.424-15.353 14.424z"/><path d="M43.193 22.733l-5.627 5.287c-.47-.218-1-.342-1.56-.342s-1.089.124-1.56.342l-2.518-2.366a1.189 1.189 0 00-1.607 0 1.022 1.022 0 000 1.51l2.519 2.366a3.13 3.13 0 00-.365 1.465c0 1.829 1.584 3.317 3.531 3.317s3.53-1.488 3.53-3.317c0-.526-.13-1.023-.363-1.465l5.462-5.132.165-.155a1.022 1.022 0 000-1.51 1.189 1.189 0 00-1.607 0zm-7.187 9.444c-.694 0-1.258-.53-1.258-1.182 0-.652.564-1.182 1.258-1.182.694 0 1.258.53 1.258 1.182 0 .652-.564 1.182-1.258 1.182zm12.148-2.237h-1.053c-.627 0-1.136.478-1.136 1.067 0 .59.51 1.068 1.136 1.068h1.053c.628 0 1.136-.478 1.136-1.068 0-.59-.508-1.067-1.136-1.067zm-23.244-.026h-1.052c-.628 0-1.136.478-1.136 1.068 0 .59.508 1.067 1.136 1.067h1.052c.628 0 1.137-.478 1.137-1.067 0-.59-.51-1.068-1.137-1.068zm11.11-8.276c.627 0 1.136-.478 1.136-1.068v-.988c0-.59-.509-1.068-1.136-1.068-.627 0-1.136.478-1.136 1.068v.988c0 .59.509 1.068 1.136 1.068zm-.028 18.713c-.627 0-1.136.478-1.136 1.068v.988c0 .59.509 1.068 1.136 1.068.628 0 1.136-.478 1.136-1.068v-.988c0-.59-.508-1.068-1.136-1.068zM1.92 36.513c-.3 0-.593.114-.804.313a1.043 1.043 0 00-.333.755c0 .281.122.556.333.754a1.183 1.183 0 001.606 0 1.04 1.04 0 00.334-.754c0-.281-.122-.556-.333-.755a1.183 1.183 0 00-.804-.313z"/></svg><svg viewBox="0 0 22 21" id="cloud-star" xmlns="http://www.w3.org/2000/svg"><path d="M10.914.149l3.272 6.577 7.316 1.055-5.294 5.12 1.25 7.228-6.544-3.413L4.37 20.13l1.25-7.23L.326 7.78l7.316-1.054L10.914.149z"/></svg><svg fill="none" viewBox="0 0 62 70" id="cursor-performance" xmlns="http://www.w3.org/2000/svg"><g filter="url(#fa)"><path d="M42.096 50.252l-7.489-9.847-6.89 10.998-7.879-4.998 6.759-10.967-11.958-2.777L48.198 9.92l-6.102 40.33z" fill="#fff"/><path d="M42.096 50.252l-7.489-9.847-6.89 10.998-7.879-4.998 6.759-10.967-11.958-2.777L48.198 9.92l-6.102 40.33z" stroke="#FFDC64" stroke-width="2.344"/></g><defs><filter id="fa" x=".039" y=".415" width="61.44" height="69.161" filterUnits="userSpaceOnUse" color-interpolation-filters="sRGB"><feFlood flood-opacity="0" result="BackgroundImageFix"/><feColorMatrix in="SourceAlpha" values="0 0 0 0 0 0 0 0 0 0 0 0 0 0 0 0 0 0 127 0" result="hardAlpha"/><feOffset dy="4.688"/><feGaussianBlur stdDeviation="5.86"/><feColorMatrix values="0 0 0 0 0.267483 0 0 0 0 0.281291 0 0 0 0 0.645833 0 0 0 0.4 0"/><feBlend in2="BackgroundImageFix" result="effect1_dropShadow_4_215"/><feBlend in="SourceGraphic" in2="effect1_dropShadow_4_215" result="shape"/></filter></defs></svg><svg fill="none" viewBox="0 0 403 397" id="square-1-team" xmlns="http://www.w3.org/2000/svg"><g filter="url(#ga)"><path d="M146 76.146C146 65.572 154.572 57 165.145 57h66.94c10.574 0 19.146 8.572 19.146 19.146V96.78c0 2.271.92 4.446 2.551 6.027 3.402 3.297 3.402 8.755 0 12.053a8.392 8.392 0 00-2.551 6.027v20.967c0 10.574-8.572 19.146-19.146 19.146h-66.94C154.572 161 146 152.428 146 141.854V76.146z" fill="#fff"/></g><defs><filter id="ga" x=".138" y=".899" width="402.057" height="395.723" filterUnits="userSpaceOnUse" color-interpolation-filters="sRGB"><feFlood flood-opacity="0" result="BackgroundImageFix"/><feColorMatrix in="SourceAlpha" values="0 0 0 0 0 0 0 0 0 0 0 0 0 0 0 0 0 0 127 0" result="hardAlpha"/><feOffset dy="89.761"/><feGaussianBlur stdDeviation="72.931"/><feColorMatrix values="0 0 0 0 0 0 0 0 0 0 0 0 0 0 0 0 0 0 0.05 0"/><feBlend in2="BackgroundImageFix" result="effect1_dropShadow_2_57"/><feBlend in="SourceGraphic" in2="effect1_dropShadow_2_57" result="shape"/></filter></defs></svg><svg viewBox="0 0 103 106" id="square-2-team" xmlns="http://www.w3.org/2000/svg"><path d="M95 0a8 8 0 018 8v81.846a8 8 0 01-8 8H63.322a8 8 0 00-5.565 2.254l-6.092 5.9-6.091-5.9a8 8 0 00-5.566-2.254H8a8 8 0 01-8-8V8a8 8 0 018-8h87z"/><rect x="20.5" y="17.5" width="17" height="57" rx="4.5" stroke-width="3" stroke="#FFF"/><rect x="44.5" y="17.5" width="40" height="12" rx="4.5" stroke-width="3" stroke="#FFF"/><path d="M84 55.5V42a6 6 0 00-6-6H50a6 6 0 00-6 6v27a6 6 0 006 6h28a6 6 0 006-6v-4.237" stroke-width="3" stroke="#FFF"/></svg><svg viewBox="0 0 48 46" id="star-performance" xmlns="http://www.w3.org/2000/svg"><path d="M24 0l5.613 17.275h18.163L33.082 27.95l5.613 17.274L24 34.55 9.305 45.225l5.613-17.274L.224 17.275h18.163L24 0z"/></svg><svg viewBox="0 0 46 42" id="triangle-performance" xmlns="http://www.w3.org/2000/svg"><path d="M.85.73l44.908 5.973L20.231 41.68.85.73z"/></svg><svg viewBox="0 0 1728 989" id="wrap-performance" xmlns="http://www.w3.org/2000/svg"><path d="M-60 917.47V0h1848v989c-65.44-102.861-358.68-208.677-552.53-71.53-193.85 137.15-339.948 32.713-432.972 0-100.862-35.469-244.53-157.838-424.115 0-143.667 126.27-352.117 52.613-438.383 0z"/></svg></svg>