<?xml version="1.0" encoding="utf-8"?><svg viewBox="0 0 1728 989" xmlns="http://www.w3.org/2000/svg" xmlns:xlink="http://www.w3.org/1999/xlink"><style>:root>svg{display:none}:root>svg:target{display:block}</style><svg viewBox="0 0 14 8" id="arrow-down" xmlns="http://www.w3.org/2000/svg"><path d="M1 1l6 6 6-6"/></svg><svg viewBox="0 0 22 21" id="cloud-star" xmlns="http://www.w3.org/2000/svg"><path d="M10.914.149l3.272 6.577 7.316 1.055-5.294 5.12 1.25 7.228-6.544-3.413L4.37 20.13l1.25-7.23L.326 7.78l7.316-1.054L10.914.149z"/></svg><svg fill="none" viewBox="0 0 62 70" id="cursor-performance" xmlns="http://www.w3.org/2000/svg"><g filter="url(#ca)"><path d="M42.096 50.252l-7.489-9.847-6.89 10.998-7.879-4.998 6.759-10.967-11.958-2.777L48.198 9.92l-6.102 40.33z" fill="#fff"/><path d="M42.096 50.252l-7.489-9.847-6.89 10.998-7.879-4.998 6.759-10.967-11.958-2.777L48.198 9.92l-6.102 40.33z" stroke="#FFDC64" stroke-width="2.344"/></g><defs><filter id="ca" x=".039" y=".415" width="61.44" height="69.161" filterUnits="userSpaceOnUse" color-interpolation-filters="sRGB"><feFlood flood-opacity="0" result="BackgroundImageFix"/><feColorMatrix in="SourceAlpha" values="0 0 0 0 0 0 0 0 0 0 0 0 0 0 0 0 0 0 127 0" result="hardAlpha"/><feOffset dy="4.688"/><feGaussianBlur stdDeviation="5.86"/><feColorMatrix values="0 0 0 0 0.267483 0 0 0 0 0.281291 0 0 0 0 0.645833 0 0 0 0.4 0"/><feBlend in2="BackgroundImageFix" result="effect1_dropShadow_4_215"/><feBlend in="SourceGraphic" in2="effect1_dropShadow_4_215" result="shape"/></filter></defs></svg><svg viewBox="0 0 48 46" id="star-performance" xmlns="http://www.w3.org/2000/svg"><path d="M24 0l5.613 17.275h18.163L33.082 27.95l5.613 17.274L24 34.55 9.305 45.225l5.613-17.274L.224 17.275h18.163L24 0z"/></svg><svg viewBox="0 0 46 42" id="triangle-performance" xmlns="http://www.w3.org/2000/svg"><path d="M.85.73l44.908 5.973L20.231 41.68.85.73z"/></svg><svg viewBox="0 0 1728 989" id="wrap-performance" xmlns="http://www.w3.org/2000/svg"><path d="M-60 917.47V0h1848v989c-65.44-102.861-358.68-208.677-552.53-71.53-193.85 137.15-339.948 32.713-432.972 0-100.862-35.469-244.53-157.838-424.115 0-143.667 126.27-352.117 52.613-438.383 0z"/></svg></svg>