<svg width="59" height="53" viewBox="0 0 59 53" xmlns="http://www.w3.org/2000/svg">
<path d="M58.8441 28.8498C58.3218 23.9143 55.9747 19.2613 52.235 15.7479C49.0391 12.7456 45.1273 10.8163 41.0113 9.95843V7.24635C42.6924 6.85344 43.942 5.42386 43.942 3.72465C43.942 1.72347 42.2091 0.095459 40.0789 0.095459H31.8982C29.768 0.095459 28.0351 1.72347 28.0351 3.72465C28.0351 5.42375 29.2847 6.85333 30.9657 7.24635V9.96601C26.8623 10.8275 22.9635 12.7542 19.7767 15.7481C19.0793 16.4032 18.4362 17.0905 17.8475 17.8048C17.819 17.8028 17.7905 17.8008 17.7614 17.8008H9.66462C9.0372 17.8008 8.52841 18.2787 8.52841 18.8682C8.52841 19.4577 9.0372 19.9356 9.66462 19.9356H16.3014C15.4684 21.2459 14.7967 22.6219 14.2854 24.0383H1.91941C1.292 24.0383 0.783203 24.5162 0.783203 25.1057C0.783203 25.6952 1.292 26.1731 1.91941 26.1731H13.6433C13.3158 27.5235 13.1279 28.8978 13.0794 30.2759H8.05495C7.42753 30.2759 6.91874 30.7538 6.91874 31.3433C6.91874 31.9329 7.42753 32.4107 8.05495 32.4107H13.1156C13.2115 33.7924 13.448 35.1668 13.8251 36.5135H6.46425C5.83684 36.5135 5.32804 36.9914 5.32804 37.581C5.32804 38.1705 5.83684 38.6484 6.46425 38.6484H14.5502C15.6648 41.4184 17.4068 44.0147 19.7767 46.2411C23.52 49.7577 28.478 51.9632 33.7371 52.4513C34.4876 52.5209 35.2388 52.5554 35.9889 52.5554C40.4226 52.5554 44.8 51.35 48.5143 49.0777C49.0401 48.756 49.1888 48.0947 48.8464 47.6007C48.5039 47.1067 47.8 46.967 47.2742 47.2887C39.1438 52.2625 28.2552 51.1871 21.3835 44.7315C13.3207 37.157 13.3207 24.8323 21.3835 17.2577C29.4462 9.68325 42.5652 9.68325 50.6281 17.2577C57.4907 23.7048 58.6416 33.9254 53.3647 41.5597C53.023 42.0541 53.1726 42.7153 53.6988 43.0363C54.2253 43.3573 54.9289 43.2168 55.2705 42.7223C58.0899 38.6432 59.3591 33.7166 58.8441 28.8498ZM30.3075 3.72476C30.3075 2.90072 31.0211 2.23038 31.8982 2.23038H40.0789C40.9561 2.23038 41.6696 2.90072 41.6696 3.72476C41.6696 4.5488 40.9561 5.21913 40.0789 5.21913H39.8751H32.1019H31.8982C31.0211 5.21913 30.3075 4.54869 30.3075 3.72476ZM33.2381 9.59903V7.35395H38.7389V9.59519C36.9123 9.3911 35.0644 9.39238 33.2381 9.59903Z"/>
<path d="M51.4321 44.4185C51.1321 44.4185 50.8401 44.5327 50.6289 44.7312C50.4164 44.9297 50.2959 45.2051 50.2959 45.4858C50.2959 45.7666 50.4164 46.0419 50.6289 46.2405C50.8401 46.4401 51.1322 46.5532 51.4321 46.5532C51.7309 46.5532 52.0229 46.4401 52.2353 46.2405C52.4467 46.0419 52.5682 45.7666 52.5682 45.4858C52.5682 45.2051 52.4468 44.9297 52.2353 44.7312C52.0229 44.5327 51.7308 44.4185 51.4321 44.4185Z"/>
<path d="M36.0058 14.436C26.2869 14.436 18.3799 21.8641 18.3799 30.9945C18.3799 40.1249 26.2869 47.553 36.0058 47.553C45.7247 47.553 53.6317 40.1249 53.6317 30.9945C53.6317 21.8641 45.7247 14.436 36.0058 14.436ZM36.0058 45.4182C27.5398 45.4182 20.6523 38.9477 20.6523 30.9945C20.6523 23.0413 27.5398 16.5708 36.0058 16.5708C44.4718 16.5708 51.3593 23.0413 51.3593 30.9945C51.3593 38.9477 44.4718 45.4182 36.0058 45.4182Z"/>
<path d="M43.1933 22.7335L37.5657 28.0202C37.0951 27.8016 36.5657 27.6781 36.0062 27.6781C35.4465 27.6781 34.9172 27.8016 34.4466 28.0202L31.928 25.6541C31.4842 25.2373 30.765 25.2373 30.321 25.6541C29.8774 26.0709 29.8774 26.7468 30.321 27.1636L32.8397 29.5296C32.6069 29.9718 32.4755 30.469 32.4755 30.9947C32.4755 32.8236 34.0593 34.3115 36.0062 34.3115C37.9531 34.3115 39.5368 32.8236 39.5368 30.9947C39.5368 30.469 39.4054 29.9718 39.1727 29.5296L44.6351 24.3981L44.8002 24.243C45.2439 23.8262 45.2439 23.1503 44.8002 22.7335C44.3565 22.3167 43.6373 22.3167 43.1933 22.7335ZM36.0062 32.1769C35.3124 32.1769 34.7479 31.6466 34.7479 30.9948C34.7479 30.3431 35.3124 29.8128 36.0062 29.8128C36.6999 29.8128 37.2644 30.3431 37.2644 30.9948C37.2644 31.6466 36.6999 32.1769 36.0062 32.1769Z"/>
<path d="M48.1542 29.9399H47.1015C46.4741 29.9399 45.9653 30.4179 45.9653 31.0074C45.9653 31.597 46.4741 32.075 47.1015 32.075H48.1542C48.7816 32.075 49.2904 31.597 49.2904 31.0074C49.2904 30.4179 48.7816 29.9399 48.1542 29.9399Z"/>
<path d="M24.9104 29.9141H23.8579C23.2305 29.9141 22.7217 30.392 22.7217 30.9816C22.7217 31.5712 23.2305 32.0491 23.8579 32.0491H24.9104C25.5378 32.0491 26.0466 31.5712 26.0466 30.9816C26.0466 30.392 25.5378 29.9141 24.9104 29.9141Z"/>
<path d="M36.02 21.6379C36.6474 21.6379 37.1561 21.16 37.1561 20.5705V19.5816C37.1561 18.9921 36.6474 18.5142 36.02 18.5142C35.3926 18.5142 34.8838 18.9921 34.8838 19.5816V20.5705C34.8838 21.16 35.3926 21.6379 36.02 21.6379Z"/>
<path d="M35.9921 40.3511C35.3647 40.3511 34.856 40.829 34.856 41.4185V42.4074C34.856 42.997 35.3647 43.4749 35.9921 43.4749C36.6195 43.4749 37.1283 42.997 37.1283 42.4074V41.4185C37.1283 40.829 36.6195 40.3511 35.9921 40.3511Z"/>
<path d="M1.91937 36.5132C1.62056 36.5132 1.32743 36.6274 1.1161 36.826C0.904773 37.0245 0.783203 37.2999 0.783203 37.5807C0.783203 37.8625 0.90466 38.1369 1.1161 38.3354C1.32754 38.534 1.62056 38.6482 1.91937 38.6482C2.21819 38.6482 2.51132 38.534 2.72253 38.3354C2.93386 38.1369 3.05554 37.8614 3.05554 37.5807C3.05554 37.2999 2.93397 37.0245 2.72253 36.826C2.51132 36.6274 2.21819 36.5132 1.91937 36.5132Z"/>
</svg>
