<svg width="103" height="106" viewBox="0 0 103 106" xmlns="http://www.w3.org/2000/svg">
<path xmlns="http://www.w3.org/2000/svg" d="M95 3.46501e-06C99.4183 3.65814e-06 103 3.58173 103 8L103 89.8462C103 94.2644 99.4183 97.8462 95 97.8462L63.3225 97.8462C61.245 97.8462 59.2489 98.6544 57.7566 100.1L51.6651 106L45.5735 100.1C44.0812 98.6544 42.0851 97.8462 40.0076 97.8462L8 97.8462C3.58172 97.8462 3.9858e-06 94.2644 4.17893e-06 89.8462L7.75654e-06 8C7.94967e-06 3.58172 3.58173 -5.31013e-07 8.00001 -3.37884e-07L95 3.46501e-06Z"/>
<rect x="20.5" y="17.5" width="17" height="57" rx="4.5" stroke-width="3" stroke="#FFF"/>
<rect x="44.5" y="17.5" width="40" height="12" rx="4.5" stroke-width="3" stroke="#FFF"/>
<path d="M84 55.5V42C84 38.6863 81.3137 36 78 36L50 36C46.6863 36 44 38.6863 44 42L44 69C44 72.3137 46.6863 75 50 75H78C81.3137 75 84 72.3137 84 69V64.7625" stroke-width="3" stroke="#FFF"/>
</svg>
